<?xml version="1.0" encoding="UTF-8" standalone="no" ?>
<!DOCTYPE svg PUBLIC "-//W3C//DTD SVG 1.1//EN" "http://www.w3.org/Graphics/SVG/1.1/DTD/svg11.dtd">
<svg xmlns="http://www.w3.org/2000/svg" xmlns:xlink="http://www.w3.org/1999/xlink" version="1.1" width="1080" height="1080" viewBox="0 0 1080 1080" xml:space="preserve">
<desc>Created with Fabric.js 5.2.4</desc>
<defs>
</defs>
<g transform="matrix(1 0 0 1 540 540)" id="189bc782-c609-43cb-8359-4fcd6971e741"  >
<rect style="stroke: none; stroke-width: 1; stroke-dasharray: none; stroke-linecap: butt; stroke-dashoffset: 0; stroke-linejoin: miter; stroke-miterlimit: 4; fill: rgb(255,255,255); fill-rule: nonzero; opacity: 1; visibility: hidden;" vector-effect="non-scaling-stroke"  x="-540" y="-540" rx="0" ry="0" width="1080" height="1080" />
</g>
<g transform="matrix(1 0 0 1 540 540)" id="7da58360-1a41-4932-8e75-70f5f1489378"  >
</g>
<g transform="matrix(1 0 0 1 324.11 540)"  >
<g style="" vector-effect="non-scaling-stroke"   >
		<g transform="matrix(1 0 0 1 0 0)"  >
<path style="stroke: none; stroke-width: 1; stroke-dasharray: none; stroke-linecap: butt; stroke-dashoffset: 0; stroke-linejoin: miter; stroke-miterlimit: 4; fill: rgb(239,244,245); fill-rule: nonzero; opacity: 1;" vector-effect="non-scaling-stroke"  transform=" translate(-50, -50)" d="M 0 0 C 33 0 66 0 100 0 C 100 33 100 66 100 100 C 67 100 34 100 0 100 C 0 67 0 34 0 0 Z" stroke-linecap="round" />
</g>
		<g transform="matrix(1 0 0 1 0.33 1.16)"  >
<path style="stroke: none; stroke-width: 1; stroke-dasharray: none; stroke-linecap: butt; stroke-dashoffset: 0; stroke-linejoin: miter; stroke-miterlimit: 4; fill: rgb(11,16,16); fill-rule: nonzero; opacity: 1;" vector-effect="non-scaling-stroke"  transform=" translate(28.57, -20.36)" d="M 0 0 C 6.56219875 4.65304521 15.20960601 11.08534957 19.1015625 18.19921875 C 19.1218429 22.33641966 17.27891826 24.54762849 14.45874023 27.44921875 C 13.94899658 27.94421875 13.43925293 28.43921875 12.9140625 28.94921875 C 12.38304932 29.47 11.85203613 29.99078125 11.30493164 30.52734375 C -0.52672968 41.75203276 -15.1926736 49.73189166 -31.81640625 49.46484375 C -43.24048459 48.48025905 -52.98765408 43.11943736 -61.8984375 36.19921875 C -61.8984375 35.53921875 -61.8984375 34.87921875 -61.8984375 34.19921875 C -58.53515787 34.75976536 -55.90731531 35.61762913 -52.8984375 37.19921875 C -53.16398437 36.67972656 -53.42953125 36.16023438 -53.703125 35.625 C -55.60798788 31.86393861 -57.3521718 28.12435475 -58.8984375 24.19921875 C -59.3934375 23.70421875 -59.3934375 23.70421875 -59.8984375 23.19921875 C -60.0859375 19.76171875 -60.0859375 19.76171875 -59.8984375 16.19921875 C -59.2384375 15.53921875 -58.5784375 14.87921875 -57.8984375 14.19921875 C -57.18449822 12.5733336 -56.52327462 10.92388312 -55.8984375 9.26171875 C -54.75367952 6.22542708 -53.71386647 3.9223622 -51.8984375 1.19921875 C -62.97465525 8.54385132 -62.97465525 8.54385132 -71.8984375 18.19921875 C -71.84495483 21.34983404 -71.24463661 22.76999828 -69.26953125 25.21875 C -68.63144531 25.81042969 -67.99335937 26.40210938 -67.3359375 27.01171875 C -66.37494141 27.91857422 -66.37494141 27.91857422 -65.39453125 28.84375 C -64.90082031 29.29105469 -64.40710938 29.73835938 -63.8984375 30.19921875 C -64.2284375 30.85921875 -64.5584375 31.51921875 -64.8984375 32.19921875 C -68.199888 30.77492041 -70.25641944 29.05985004 -72.6484375 26.38671875 C -73.26203125 25.72027344 -73.875625 25.05382813 -74.5078125 24.3671875 C -76.29228867 21.58520919 -76.58409283 20.44883875 -75.8984375 17.19921875 C -74.08714187 14.87642768 -72.37976026 12.96945284 -70.2734375 10.94921875 C -69.69094238 10.38146729 -69.10844727 9.81371582 -68.50830078 9.22875977 C -48.14046554 -10.02686658 -24.55489973 -14.93378466 0 0 Z" stroke-linecap="round" />
</g>
		<g transform="matrix(1 0 0 1 0.33 1.16)"  >
<path style="stroke: none; stroke-width: 1; stroke-dasharray: none; stroke-linecap: butt; stroke-dashoffset: 0; stroke-linejoin: miter; stroke-miterlimit: 4; fill: rgb(10,14,14); fill-rule: nonzero; opacity: 1;" vector-effect="non-scaling-stroke"  transform=" translate(28.57, -20.36)" d="M 0 0 C 6.56219875 4.65304521 15.20960601 11.08534957 19.1015625 18.19921875 C 19.1218429 22.33641966 17.27891826 24.54762849 14.45874023 27.44921875 C 13.94899658 27.94421875 13.43925293 28.43921875 12.9140625 28.94921875 C 12.38304932 29.47 11.85203613 29.99078125 11.30493164 30.52734375 C -0.52672968 41.75203276 -15.1926736 49.73189166 -31.81640625 49.46484375 C -43.24048459 48.48025905 -52.98765408 43.11943736 -61.8984375 36.19921875 C -61.8984375 35.53921875 -61.8984375 34.87921875 -61.8984375 34.19921875 C -58.53515787 34.75976536 -55.90731531 35.61762913 -52.8984375 37.19921875 C -53.16398437 36.67972656 -53.42953125 36.16023438 -53.703125 35.625 C -55.60798788 31.86393861 -57.3521718 28.12435475 -58.8984375 24.19921875 C -59.3934375 23.70421875 -59.3934375 23.70421875 -59.8984375 23.19921875 C -60.0859375 19.76171875 -60.0859375 19.76171875 -59.8984375 16.19921875 C -59.2384375 15.53921875 -58.5784375 14.87921875 -57.8984375 14.19921875 C -57.18449822 12.5733336 -56.52327462 10.92388312 -55.8984375 9.26171875 C -54.75367952 6.22542708 -53.71386647 3.9223622 -51.8984375 1.19921875 C -62.97465525 8.54385132 -62.97465525 8.54385132 -71.8984375 18.19921875 C -71.84495483 21.34983404 -71.24463661 22.76999828 -69.26953125 25.21875 C -68.63144531 25.81042969 -67.99335937 26.40210938 -67.3359375 27.01171875 C -66.37494141 27.91857422 -66.37494141 27.91857422 -65.39453125 28.84375 C -64.90082031 29.29105469 -64.40710938 29.73835938 -63.8984375 30.19921875 C -64.2284375 30.85921875 -64.5584375 31.51921875 -64.8984375 32.19921875 C -68.199888 30.77492041 -70.25641944 29.05985004 -72.6484375 26.38671875 C -73.26203125 25.72027344 -73.875625 25.05382813 -74.5078125 24.3671875 C -76.29228867 21.58520919 -76.58409283 20.44883875 -75.8984375 17.19921875 C -74.08714187 14.87642768 -72.37976026 12.96945284 -70.2734375 10.94921875 C -69.69094238 10.38146729 -69.10844727 9.81371582 -68.50830078 9.22875977 C -48.14046554 -10.02686658 -24.55489973 -14.93378466 0 0 Z M -48.5625 2.05859375 C -51.37470482 5.60383774 -53.60675351 8.53227498 -53.8984375 13.19921875 C -52.9084375 13.19921875 -51.9184375 13.19921875 -50.8984375 13.19921875 C -50.65609375 12.65652344 -50.41375 12.11382812 -50.1640625 11.5546875 C -46.83516861 4.44877938 -46.83516861 4.44877938 -42.8984375 2.19921875 C -44.13768433 4.78098298 -45.4294925 6.95786875 -47.0859375 9.32421875 C -49.42789701 13.30210586 -48.90998376 16.53467019 -48.16015625 20.96484375 C -47.8984375 23.19921875 -47.8984375 23.19921875 -48.8984375 26.19921875 C -46.93068935 31.40796385 -43.88569522 34.47777821 -39.8984375 38.19921875 C -38.4134375 37.70421875 -38.4134375 37.70421875 -36.8984375 37.19921875 C -36.53973447 33.34316117 -36.56400812 31.67389271 -38.8359375 28.44921875 C -39.856875 27.33546875 -39.856875 27.33546875 -40.8984375 26.19921875 C -42.25283418 23.4904254 -41.96345201 21.18988607 -41.8984375 18.19921875 C -41.66769531 18.8025 -41.43695313 19.40578125 -41.19921875 20.02734375 C -38.47666485 26.77099362 -38.47666485 26.77099362 -32.8984375 31.19921875 C -27.86339904 31.83858871 -25.89144357 31.73118629 -21.3984375 29.32421875 C -20.5734375 28.62296875 -19.7484375 27.92171875 -18.8984375 27.19921875 C -18.8984375 26.53921875 -18.8984375 25.87921875 -18.8984375 25.19921875 C -18.2384375 25.19921875 -17.5784375 25.19921875 -16.8984375 25.19921875 C -18.6484375 30.07421875 -18.6484375 30.07421875 -20.8984375 31.19921875 C -21.14874727 33.61541698 -21.14874727 33.61541698 -20.8984375 36.19921875 C -19.9084375 36.85921875 -18.9184375 37.51921875 -17.8984375 38.19921875 C -15.5884375 36.54921875 -13.2784375 34.89921875 -10.8984375 33.19921875 C -12.45660583 36.93882275 -14.30365956 38.72638261 -17.8359375 40.51171875 C -24.0974019 43.01018582 -30.72474922 43.3807151 -37.23046875 41.5390625 C -43.30676982 38.85526604 -47.4826322 34.2238937 -50.2734375 28.26171875 C -50.4796875 27.58109375 -50.6859375 26.90046875 -50.8984375 26.19921875 C -51.8884375 26.19921875 -52.8784375 26.19921875 -53.8984375 26.19921875 C -53.08509468 33.11263274 -48.97318325 37.65830304 -43.73828125 41.875 C -37.42771447 46.41700029 -31.42199082 46.96217064 -23.8984375 46.19921875 C -17.36503561 44.95476125 -12.26739006 42.25115893 -7.8984375 37.19921875 C -4.30013961 32.08484548 -4.30013961 32.08484548 -2.8984375 26.19921875 C -3.8884375 26.19921875 -4.8784375 26.19921875 -5.8984375 26.19921875 C -6.2284375 27.51921875 -6.5584375 28.83921875 -6.8984375 30.19921875 C -7.8884375 30.19921875 -8.8784375 30.19921875 -9.8984375 30.19921875 C -9.6509375 28.59046875 -9.6509375 28.59046875 -9.3984375 26.94921875 C -8.81032835 23.16893123 -8.81032835 23.16893123 -8.8984375 19.19921875 C -7.5784375 20.84921875 -6.2584375 22.49921875 -4.8984375 24.19921875 C -2.03119064 23.62576938 -1.036986 23.33776725 1.1015625 21.19921875 C 0.18361485 26.07140243 -2.4182942 30.18364912 -4.71875 34.51953125 C -5.10804687 35.40382812 -5.49734375 36.288125 -5.8984375 37.19921875 C -5.5684375 37.85921875 -5.2384375 38.51921875 -4.8984375 39.19921875 C 2.6389483 34.06921093 10.6179638 28.59453076 16.1015625 21.19921875 C 16.11245012 18.36843764 15.19443052 17.31411593 13.421875 15.12109375 C 7.72916005 9.48915512 1.70281178 4.72755237 -4.8984375 0.19921875 C -5.5584375 0.52921875 -6.2184375 0.85921875 -6.8984375 1.19921875 C -6.8984375 2.18921875 -6.8984375 3.17921875 -6.8984375 4.19921875 C -7.48238281 3.51085937 -7.48238281 3.51085937 -8.078125 2.80859375 C -13.49264037 -3.12990698 -19.77100324 -6.84673061 -27.9609375 -7.23828125 C -35.80554982 -6.36665766 -43.15814924 -3.98007048 -48.5625 2.05859375 Z" stroke-linecap="round" />
</g>
		<g transform="matrix(1 0 0 1 10.02 -3.01)"  >
<path style="stroke: none; stroke-width: 1; stroke-dasharray: none; stroke-linecap: butt; stroke-dashoffset: 0; stroke-linejoin: miter; stroke-miterlimit: 4; fill: rgb(216,238,244); fill-rule: nonzero; opacity: 1;" vector-effect="non-scaling-stroke"  transform=" translate(4.98, -18.99)" d="M 0 0 C 2.57727674 2.14543358 4.83228114 4.44467578 7 7 C 7 6.01 7 5.02 7 4 C 14.9708518 4 23.0495567 13.68198883 28.515625 18.921875 C 30 21 30 21 30.046875 22.9296875 C 25.98884941 30.95488737 16.58027326 37.56413639 9 42 C 9 38.2382296 10.22834927 36.21287085 11.9375 32.875 C 12.48277344 31.79992188 13.02804688 30.72484375 13.58984375 29.6171875 C 15 27 15 27 16 26 C 16.66386403 20.55631496 14.93447381 16.48738878 12 12 C 11.34 11.67 10.68 11.34 10 11 C 10.495 13.475 10.495 13.475 11 16 C 9.25 15.9375 9.25 15.9375 7 15 C 6.04240623 13.31595579 5.09035504 11.62807636 4.1875 9.9140625 C 1.38213729 5.39226077 -2.50728387 2.60814361 -7.375 0.625 C -16.26690888 -0.90808774 -22.33083418 -0.12171563 -30 5 C -33.453843 8.08263557 -35.57324032 11.59001552 -37 16 C -37.99 16 -38.98 16 -40 16 C -39.66164693 10.58635084 -36.58110636 6.82914836 -33 3 C -22.93885297 -5.10594437 -11.23022835 -6.31586586 0 0 Z" stroke-linecap="round" />
</g>
		<g transform="matrix(1 0 0 1 -6.55 10.65)"  >
<path style="stroke: none; stroke-width: 1; stroke-dasharray: none; stroke-linecap: butt; stroke-dashoffset: 0; stroke-linejoin: miter; stroke-miterlimit: 4; fill: rgb(9,14,15); fill-rule: nonzero; opacity: 1;" vector-effect="non-scaling-stroke"  transform=" translate(-15.45, -13.65)" d="M 0 0 C 1.75 1.4375 1.75 1.4375 3 4 C 3.11117907 5.41475372 3.19122703 6.83210204 3.25 8.25 C 3.62985242 13.34002248 5.90607831 15.92237614 9.30859375 19.56640625 C 10.88474783 21.21552461 10.88474783 21.21552461 13 21 C 13.35870303 17.14394242 13.33442938 15.47467396 11.0625 12.25 C 10.381875 11.5075 9.70125 10.765 9 10 C 7.64560332 7.29120665 7.93498549 4.99066732 8 2 C 8.66 1.67 9.32 1.34 10 1 C 10.15855469 1.60328125 10.31710938 2.2065625 10.48046875 2.828125 C 11.60328025 6.67421966 12.55984678 9.48439194 15.1875 12.5625 C 18.92400162 14.4722675 21.88318246 14.70144559 26 14 C 29.25280684 12.48202348 31.59890215 10.65384499 34 8 C 34.495 9.485 34.495 9.485 35 11 C 33.6875 13.1875 33.6875 13.1875 32 15 C 31.34 15 30.68 15 30 15 C 30.66 16.98 31.32 18.96 32 21 C 32.763125 20.525625 33.52625 20.05125 34.3125 19.5625 C 37 18 37 18 40 17 C 39.63108098 19.62156088 39.32833246 20.7268804 37.2578125 22.44921875 C 36.55398437 22.85785156 35.85015625 23.26648438 35.125 23.6875 C 34.42632812 24.10386719 33.72765625 24.52023438 33.0078125 24.94921875 C 27.19068212 27.99359243 19.9685254 28.04892001 13.6796875 26.38671875 C 8.32365772 24.0027604 4.1543866 19.90987131 1 15 C 0.30859375 12.24609375 0.30859375 12.24609375 0 10 C -1.32 10 -2.64 10 -4 10 C -4.33 10.99 -4.66 11.98 -5 13 C -5.28875 12.38125 -5.5775 11.7625 -5.875 11.125 C -6.93720042 8.86674235 -6.93720042 8.86674235 -9 7 C -9.125 4.375 -9.125 4.375 -9 2 C -5.89608238 0.16064141 -3.60570855 -0.55472439 0 0 Z" stroke-linecap="round" />
</g>
		<g transform="matrix(1 0 0 1 0.5 5.18)"  >
<path style="stroke: none; stroke-width: 1; stroke-dasharray: none; stroke-linecap: butt; stroke-dashoffset: 0; stroke-linejoin: miter; stroke-miterlimit: 4; fill: rgb(165,241,248); fill-rule: nonzero; opacity: 1;" vector-effect="non-scaling-stroke"  transform=" translate(9.5, -22.18)" d="M 0 0 C 4.23315493 1.56783516 6.42641166 4.38306504 9 8 C 10.66033337 13.36415396 11.56375503 22.87248994 9 28 C 9.99 28 10.98 28 12 28 C 12.33 26.68 12.66 25.36 13 24 C 13.99 24 14.98 24 16 24 C 14.28473518 30.8610593 10.5056154 35.9741833 5.0625 40.375 C -1.69825027 43.96233688 -8.44079899 44.98779105 -16 44 C -24.14784972 41.4500907 -29.94812554 36.290585 -34.1875 28.94140625 C -35 27 -35 27 -35 24 C -34.01 24 -33.02 24 -32 24 C -31.484375 25.19625 -30.96875 26.3925 -30.4375 27.625 C -27.76796801 32.96406398 -24.01081657 36.55421184 -18.6328125 39.13671875 C -11.79821545 41.37773648 -4.83667038 40.79795773 1.625 37.75 C 5.03145123 35.96409353 6.57118337 34.595087 8 31 C 5.69 32.65 3.38 34.3 1 36 C 0.01 35.34 -0.98 34.68 -2 34 C -2.4375 31.625 -2.4375 31.625 -2 29 C -0.71034824 27.62437146 0.62689293 26.29233607 2 25 C 4.14896016 21.3160683 4.25430067 18.19589185 3.62890625 13.984375 C 2.9128053 11.72487635 1.97580181 10.54261449 0.375 8.8125 C -2 6 -2 6 -1.875 3.1875 C -1 1 -1 1 0 0 Z" stroke-linecap="round" />
</g>
		<g transform="matrix(1 0 0 1 0.36 0.79)"  >
<path style="stroke: none; stroke-width: 1; stroke-dasharray: none; stroke-linecap: butt; stroke-dashoffset: 0; stroke-linejoin: miter; stroke-miterlimit: 4; fill: rgb(130,113,130); fill-rule: nonzero; opacity: 1;" vector-effect="non-scaling-stroke"  transform=" translate(5.64, -10.79)" d="M 0 0 C 2.94194583 2.02258775 4.49783456 3.47467248 5.625 6.8984375 C 6.29482477 10.54060968 6.08044198 12.76314307 4.875 16.3125 C 2.7385818 19.37469941 1.46620794 20.61351682 -2 22 C -8.56693369 22.83389634 -8.56693369 22.83389634 -11.8125 20.9453125 C -14.67728868 18.6176717 -16.78982413 16.75376262 -17.23828125 13.01171875 C -17.36800555 8.94929982 -17.37432746 6.62833539 -15.25 3.0625 C -10.38155827 -1.40023825 -6.25813635 -1.69560914 0 0 Z" stroke-linecap="round" />
</g>
		<g transform="matrix(1 0 0 1 -13.92 0.5)"  >
<path style="stroke: none; stroke-width: 1; stroke-dasharray: none; stroke-linecap: butt; stroke-dashoffset: 0; stroke-linejoin: miter; stroke-miterlimit: 4; fill: rgb(165,241,248); fill-rule: nonzero; opacity: 1;" vector-effect="non-scaling-stroke"  transform=" translate(2.92, -17.5)" d="M 0 0 C 0.99 0.33 1.98 0.66 3 1 C 3.40322225 4.52819467 3.18545105 5.74276145 1.0625 8.6875 C 0.381875 9.450625 -0.29875 10.21375 -1 11 C -2.73217304 14.46434608 -2.48298493 18.21238136 -2 22 C -0.76666484 24.71333735 0.88116453 26.88116453 3 29 C 3.04080783 30.99958364 3.04254356 33.00045254 3 35 C -1 35 -1 35 -2.88671875 33.42578125 C -3.48097656 32.72839844 -4.07523438 32.03101563 -4.6875 31.3125 C -5.28949219 30.62800781 -5.89148437 29.94351563 -6.51171875 29.23828125 C -8.15258411 26.77052311 -8.70503291 24.93467259 -9 22 C -8.67 21.67 -8.34 21.34 -8 21 C -7.81436381 16.96679304 -7.81436381 16.96679304 -8.64453125 13.0546875 C -9.24150871 9.60402657 -7.27188757 7.61958238 -5.40234375 4.84375 C -3.7935789 2.72860513 -2.39321784 1.19660892 0 0 Z" stroke-linecap="round" />
</g>
		<g transform="matrix(1 0 0 1 1 -16.01)"  >
<path style="stroke: none; stroke-width: 1; stroke-dasharray: none; stroke-linecap: butt; stroke-dashoffset: 0; stroke-linejoin: miter; stroke-miterlimit: 4; fill: rgb(97,212,226); fill-rule: nonzero; opacity: 1;" vector-effect="non-scaling-stroke"  transform=" translate(14, -5.99)" d="M 0 0 C 2.04977812 1.76288469 3.84710459 3.57505236 5.625 5.609375 C 6.305625 6.29773438 6.305625 6.29773438 7 7 C 7.66 7 8.32 7 9 7 C 10.625 9 10.625 9 12 11 C 11.34 11 10.68 11 10 11 C 10.495 13.475 10.495 13.475 11 16 C 9.25 15.9375 9.25 15.9375 7 15 C 6.04240623 13.31595579 5.09035504 11.62807636 4.1875 9.9140625 C 1.38213729 5.39226077 -2.50728387 2.60814361 -7.375 0.625 C -16.26690888 -0.90808774 -22.33083418 -0.12171563 -30 5 C -33.453843 8.08263557 -35.57324032 11.59001552 -37 16 C -37.99 16 -38.98 16 -40 16 C -39.66164693 10.58635084 -36.58110636 6.82914836 -33 3 C -22.94896096 -5.09780068 -11.21896742 -6.33005154 0 0 Z" stroke-linecap="round" />
</g>
		<g transform="matrix(1 0 0 1 0.5 17.18)"  >
<path style="stroke: none; stroke-width: 1; stroke-dasharray: none; stroke-linecap: butt; stroke-dashoffset: 0; stroke-linejoin: miter; stroke-miterlimit: 4; fill: rgb(91,208,226); fill-rule: nonzero; opacity: 1;" vector-effect="non-scaling-stroke"  transform=" translate(-25.5, -10.18)" d="M 0 0 C 0.99 0 1.98 0 3 0 C 3.515625 1.19625 4.03125 2.3925 4.5625 3.625 C 7.23203199 8.96406398 10.98918343 12.55421184 16.3671875 15.13671875 C 23.10075647 17.34461006 30.12865384 16.80537278 36.5625 13.9375 C 39.8386749 12.10746972 41.61512021 10.64266677 43.125 7.1875 C 43.41375 6.135625 43.7025 5.08375 44 4 C 44.99 4 45.98 4 47 4 C 47.33 2.68 47.66 1.36 48 0 C 48.99 0 49.98 0 51 0 C 49.28473518 6.8610593 45.5056154 11.9741833 40.0625 16.375 C 33.30174973 19.96233688 26.55920101 20.98779105 19 20 C 10.85215028 17.4500907 5.05187446 12.290585 0.8125 4.94140625 C 0 3 0 3 0 0 Z" stroke-linecap="round" />
</g>
		<g transform="matrix(1 0 0 1 -14 18.57)"  >
<path style="stroke: none; stroke-width: 1; stroke-dasharray: none; stroke-linecap: butt; stroke-dashoffset: 0; stroke-linejoin: miter; stroke-miterlimit: 4; fill: rgb(15,19,19); fill-rule: nonzero; opacity: 1;" vector-effect="non-scaling-stroke"  transform=" translate(-12, -11.57)" d="M 0 0 C 1.06481197 1.59721796 2.11824715 3.20479036 3.078125 4.8671875 C 7.30204888 12.10417707 11.88677488 16.20233616 20 19 C 21.41261703 19.19807914 22.82998853 19.36476081 24.25 19.5 C 28.13540003 20.01805334 28.61961146 20.2375738 31 23 C 16.34427341 24.05732697 4.38619838 18.84265481 -7 10 C -7 9.34 -7 8.68 -7 8 C -3.65626525 8.55728913 -0.96687001 9.35173889 2 11 C 1.484375 10.113125 0.96875 9.22625 0.4375 8.3125 C -1.0868937 4.79976669 -1.14947895 3.55293493 0 0 Z" stroke-linecap="round" />
</g>
		<g transform="matrix(1 0 0 1 0.28 0.68)"  >
<path style="stroke: none; stroke-width: 1; stroke-dasharray: none; stroke-linecap: butt; stroke-dashoffset: 0; stroke-linejoin: miter; stroke-miterlimit: 4; fill: rgb(4,3,4); fill-rule: nonzero; opacity: 1;" vector-effect="non-scaling-stroke"  transform=" translate(4.72, -5.68)" d="M 0 0 C 2 3 2 3 1.75 6.5625 C 1 10 1 10 -1 12 C -7.00458716 12.54587156 -7.00458716 12.54587156 -9.9375 10.9375 C -11.63335287 7.84506242 -11.43060657 5.44485259 -11 2 C -7.88980721 -1.98104677 -4.56233816 -1.18282841 0 0 Z" stroke-linecap="round" />
</g>
		<g transform="matrix(1 0 0 1 -36 27)"  >
<path style="stroke: none; stroke-width: 1; stroke-dasharray: none; stroke-linecap: butt; stroke-dashoffset: 0; stroke-linejoin: miter; stroke-miterlimit: 4; fill: rgb(32,32,33); fill-rule: nonzero; opacity: 1;" vector-effect="non-scaling-stroke"  transform=" translate(-2.75, -6.13)" d="M 0 0 C 0.9075 0.00257812 1.815 0.00515625 2.75 0.0078125 C 4.11125 0.00394531 4.11125 0.00394531 5.5 0 C 7.75 0.1328125 7.75 0.1328125 8.75 1.1328125 C 8.84823937 2.79710301 8.87973631 4.46563181 8.875 6.1328125 C 8.87757812 7.0403125 8.88015625 7.9478125 8.8828125 8.8828125 C 8.75 11.1328125 8.75 11.1328125 7.75 12.1328125 C 6.08570949 12.23105187 4.41718069 12.26254881 2.75 12.2578125 C 1.38875 12.26167969 1.38875 12.26167969 0 12.265625 C -2.25 12.1328125 -2.25 12.1328125 -3.25 11.1328125 C -3.34823937 9.46852199 -3.37973631 7.79999319 -3.375 6.1328125 C -3.37757813 5.2253125 -3.38015625 4.3178125 -3.3828125 3.3828125 C -3.20347538 0.34463064 -3.03818186 0.17933712 0 0 Z" stroke-linecap="round" />
</g>
		<g transform="matrix(1 0 0 1 32 -1)"  >
<path style="stroke: none; stroke-width: 1; stroke-dasharray: none; stroke-linecap: butt; stroke-dashoffset: 0; stroke-linejoin: miter; stroke-miterlimit: 4; fill: rgb(240,246,248); fill-rule: nonzero; opacity: 1;" vector-effect="non-scaling-stroke"  transform=" translate(-8, -14)" d="M 0 0 C 3.80172161 1.57373592 6.24341988 3.97621642 9.125 6.875 C 9.99382812 7.73867188 10.86265625 8.60234375 11.7578125 9.4921875 C 13.68517954 11.64788374 14.90515161 13.35514153 16 16 C 14.57063361 17.81892117 13.13123035 19.62995881 11.6875 21.4375 C 10.88699219 22.44683594 10.08648437 23.45617187 9.26171875 24.49609375 C 7 27 7 27 4 28 C 4.75 21.25 4.75 21.25 7 19 C 7.70798978 14.04407154 6.22512193 10.94501013 3.875 6.734375 C 3 5 3 5 3 3 C 2.01 2.67 1.02 2.34 0 2 C 0 1.34 0 0.68 0 0 Z" stroke-linecap="round" />
</g>
		<g transform="matrix(1 0 0 1 36.5 -25.5)"  >
<path style="stroke: none; stroke-width: 1; stroke-dasharray: none; stroke-linecap: butt; stroke-dashoffset: 0; stroke-linejoin: miter; stroke-miterlimit: 4; fill: rgb(15,13,22); fill-rule: nonzero; opacity: 1;" vector-effect="non-scaling-stroke"  transform=" translate(-5.5, -5.5)" d="M 0 0 C 3.63 0 7.26 0 11 0 C 11 3.63 11 7.26 11 11 C 7.37 11 3.74 11 0 11 C 0 7.37 0 3.74 0 0 Z" stroke-linecap="round" />
</g>
		<g transform="matrix(1 0 0 1 -39.8 -1)"  >
<path style="stroke: none; stroke-width: 1; stroke-dasharray: none; stroke-linecap: butt; stroke-dashoffset: 0; stroke-linejoin: miter; stroke-miterlimit: 4; fill: rgb(25,26,26); fill-rule: nonzero; opacity: 1;" vector-effect="non-scaling-stroke"  transform=" translate(5.8, -14)" d="M 0 0 C 0.66 0.33 1.32 0.66 2 1 C 0.08155581 5.67422038 -3.50331794 8.37855026 -7.19921875 11.68359375 C -9.26202798 13.84612276 -9.26202798 13.84612276 -8.9921875 16.546875 C -7.86634738 19.33044821 -6.63071867 20.77878814 -4.4375 22.8125 C -3.79683594 23.41707031 -3.15617188 24.02164063 -2.49609375 24.64453125 C -2.00238281 25.09183594 -1.50867187 25.53914063 -1 26 C -1.33 26.66 -1.66 27.32 -2 28 C -5.3014505 26.57570166 -7.35798194 24.86063129 -9.75 22.1875 C -10.36359375 21.52105469 -10.9771875 20.85460937 -11.609375 20.16796875 C -13 18 -13 18 -13.609375 15.6640625 C -12.63237166 11.39280431 -9.63141431 9.10733226 -6.5 6.1875 C -5.56994141 5.2912793 -5.56994141 5.2912793 -4.62109375 4.37695312 C -3.09174512 2.90642559 -1.54728534 1.4516427 0 0 Z" stroke-linecap="round" />
</g>
		<g transform="matrix(1 0 0 1 30 -39)"  >
<path style="stroke: none; stroke-width: 1; stroke-dasharray: none; stroke-linecap: butt; stroke-dashoffset: 0; stroke-linejoin: miter; stroke-miterlimit: 4; fill: rgb(57,57,66); fill-rule: nonzero; opacity: 1;" vector-effect="non-scaling-stroke"  transform=" translate(-2.19, -5.13)" d="M 0 0 C 0.721875 0.00257813 1.44375 0.00515625 2.1875 0.0078125 C 2.909375 0.00523437 3.63125 0.00265625 4.375 0 C 6.1875 0.1328125 6.1875 0.1328125 7.1875 1.1328125 C 7.3203125 2.9453125 7.3203125 2.9453125 7.3125 5.1328125 C 7.31507812 5.8546875 7.31765625 6.5765625 7.3203125 7.3203125 C 7.1875 9.1328125 7.1875 9.1328125 6.1875 10.1328125 C 4.375 10.265625 4.375 10.265625 2.1875 10.2578125 C 1.465625 10.26039062 0.74375 10.26296875 0 10.265625 C -1.8125 10.1328125 -1.8125 10.1328125 -2.8125 9.1328125 C -2.9453125 7.3203125 -2.9453125 7.3203125 -2.9375 5.1328125 C -2.94007812 4.4109375 -2.94265625 3.6890625 -2.9453125 2.9453125 C -2.7645617 0.47859567 -2.46671683 0.1807508 0 0 Z" stroke-linecap="round" />
</g>
		<g transform="matrix(1 0 0 1 33 30.23)"  >
<path style="stroke: none; stroke-width: 1; stroke-dasharray: none; stroke-linecap: butt; stroke-dashoffset: 0; stroke-linejoin: miter; stroke-miterlimit: 4; fill: rgb(8,8,8); fill-rule: nonzero; opacity: 1;" vector-effect="non-scaling-stroke"  transform=" translate(-14, -3.23)" d="M 0 0 C 3.875 0.875 3.875 0.875 5 2 C 6.70563778 2.15740605 8.41727244 2.25093392 10.12890625 2.31640625 C 11.68061523 2.37924805 11.68061523 2.37924805 13.26367188 2.44335938 C 14.35228516 2.48267578 15.44089844 2.52199219 16.5625 2.5625 C 17.65498047 2.60568359 18.74746094 2.64886719 19.87304688 2.69335938 C 22.58189564 2.79982068 25.29083992 2.90183516 28 3 C 28 3.99 28 4.98 28 6 C 24.08358289 6.11618764 20.16760899 6.18724654 16.25 6.25 C 14.58324219 6.30027344 14.58324219 6.30027344 12.8828125 6.3515625 C 11.81289062 6.36445312 10.74296875 6.37734375 9.640625 6.390625 C 8.16384277 6.4220459 8.16384277 6.4220459 6.65722656 6.45410156 C 3.2706985 5.87536744 2.09184848 4.66719981 0 2 C 0 1.34 0 0.68 0 0 Z" stroke-linecap="round" />
</g>
		<g transform="matrix(1 0 0 1 -12.5 16.61)"  >
<path style="stroke: none; stroke-width: 1; stroke-dasharray: none; stroke-linecap: butt; stroke-dashoffset: 0; stroke-linejoin: miter; stroke-miterlimit: 4; fill: rgb(98,218,232); fill-rule: nonzero; opacity: 1;" vector-effect="non-scaling-stroke"  transform=" translate(-12.5, -9.61)" d="M 0 0 C 0.99 0 1.98 0 3 0 C 3.515625 1.19625 4.03125 2.3925 4.5625 3.625 C 8.63651006 11.63156143 14.51070597 14.57824182 22.83984375 17.3359375 C 23.55269531 17.55507812 24.26554687 17.77421875 25 18 C 25 18.33 25 18.66 25 19 C 18.95349564 19.6298442 14.87721606 19.0907536 9.85546875 15.5625 C 5.67585763 12.04282747 2.14641753 8.06514416 0 3 C 0 2.01 0 1.02 0 0 Z" stroke-linecap="round" />
</g>
		<g transform="matrix(1 0 0 1 -29.5 40.5)"  >
<path style="stroke: none; stroke-width: 1; stroke-dasharray: none; stroke-linecap: butt; stroke-dashoffset: 0; stroke-linejoin: miter; stroke-miterlimit: 4; fill: rgb(8,8,8); fill-rule: nonzero; opacity: 1;" vector-effect="non-scaling-stroke"  transform=" translate(-4.5, -4.5)" d="M 0 0 C 2.97 0 5.94 0 9 0 C 9 2.97 9 5.94 9 9 C 6.03 9 3.06 9 0 9 C 0 6.03 0 3.06 0 0 Z" stroke-linecap="round" />
</g>
		<g transform="matrix(1 0 0 1 35 41.5)"  >
<path style="stroke: none; stroke-width: 1; stroke-dasharray: none; stroke-linecap: butt; stroke-dashoffset: 0; stroke-linejoin: miter; stroke-miterlimit: 4; fill: rgb(30,30,30); fill-rule: nonzero; opacity: 1;" vector-effect="non-scaling-stroke"  transform=" translate(-12, -1.5)" d="M 0 0 C 7.92 0 15.84 0 24 0 C 24.33 0.99 24.66 1.98 25 3 C 16.42 3 7.84 3 -1 3 C -0.67 2.01 -0.34 1.02 0 0 Z" stroke-linecap="round" />
</g>
		<g transform="matrix(1 0 0 1 -34.5 -40.5)"  >
<path style="stroke: none; stroke-width: 1; stroke-dasharray: none; stroke-linecap: butt; stroke-dashoffset: 0; stroke-linejoin: miter; stroke-miterlimit: 4; fill: rgb(27,27,27); fill-rule: nonzero; opacity: 1;" vector-effect="non-scaling-stroke"  transform=" translate(-12.5, -1.5)" d="M 0 0 C 8.25 0 16.5 0 25 0 C 25 0.99 25 1.98 25 3 C 16.75 3 8.5 3 0 3 C 0 2.01 0 1.02 0 0 Z" stroke-linecap="round" />
</g>
		<g transform="matrix(1 0 0 1 -34.5 -45.5)"  >
<path style="stroke: none; stroke-width: 1; stroke-dasharray: none; stroke-linecap: butt; stroke-dashoffset: 0; stroke-linejoin: miter; stroke-miterlimit: 4; fill: rgb(23,24,24); fill-rule: nonzero; opacity: 1;" vector-effect="non-scaling-stroke"  transform=" translate(-12.5, -1.5)" d="M 0 0 C 8.25 0 16.5 0 25 0 C 25 0.99 25 1.98 25 3 C 16.75 3 8.5 3 0 3 C 0 2.01 0 1.02 0 0 Z" stroke-linecap="round" />
</g>
		<g transform="matrix(1 0 0 1 35 36.5)"  >
<path style="stroke: none; stroke-width: 1; stroke-dasharray: none; stroke-linecap: butt; stroke-dashoffset: 0; stroke-linejoin: miter; stroke-miterlimit: 4; fill: rgb(22,22,22); fill-rule: nonzero; opacity: 1;" vector-effect="non-scaling-stroke"  transform=" translate(-12, -1.5)" d="M 0 0 C 7.92 0 15.84 0 24 0 C 24 0.99 24 1.98 24 3 C 16.08 3 8.16 3 0 3 C 0 2.01 0 1.02 0 0 Z" stroke-linecap="round" />
</g>
		<g transform="matrix(1 0 0 1 2.98 3.62)"  >
<path style="stroke: none; stroke-width: 1; stroke-dasharray: none; stroke-linecap: butt; stroke-dashoffset: 0; stroke-linejoin: miter; stroke-miterlimit: 4; fill: rgb(114,94,114); fill-rule: nonzero; opacity: 1;" vector-effect="non-scaling-stroke"  transform=" translate(7.02, -8.62)" d="M 0 0 C 2.25970555 3.38955832 2.21472064 5.03925843 1.6171875 8.99609375 C 0.62053823 12.23204992 -1.42072106 13.923995 -4 16 C -6.22890995 17.11445498 -7.53055106 17.16480286 -10 17.1875 C -11.051875 17.20876953 -11.051875 17.20876953 -12.125 17.23046875 C -14 17 -14 17 -16 15 C -14.98679688 14.85304688 -14.98679688 14.85304688 -13.953125 14.703125 C -8.46862994 13.79124917 -8.46862994 13.79124917 -3.5 11.4375 C -1.29706352 7.85772822 -0.66807805 4.11395428 0 0 Z" stroke-linecap="round" />
</g>
		<g transform="matrix(1 0 0 1 44 -43)"  >
<path style="stroke: none; stroke-width: 1; stroke-dasharray: none; stroke-linecap: butt; stroke-dashoffset: 0; stroke-linejoin: miter; stroke-miterlimit: 4; fill: rgb(38,37,43); fill-rule: nonzero; opacity: 1;" vector-effect="non-scaling-stroke"  transform=" translate(0, -4.13)" d="M 0 0 C 3 0.125 3 0.125 4 1.125 C 4.125 4.125 4.125 4.125 4 7.125 C 3 8.125 3 8.125 0 8.25 C -3 8.125 -3 8.125 -4 7.125 C -4.125 4.125 -4.125 4.125 -4 1.125 C -3 0.125 -3 0.125 0 0 Z" stroke-linecap="round" />
</g>
		<g transform="matrix(1 0 0 1 32 46.5)"  >
<path style="stroke: none; stroke-width: 1; stroke-dasharray: none; stroke-linecap: butt; stroke-dashoffset: 0; stroke-linejoin: miter; stroke-miterlimit: 4; fill: rgb(36,36,37); fill-rule: nonzero; opacity: 1;" vector-effect="non-scaling-stroke"  transform=" translate(-9, -1.5)" d="M 0 0 C 6.27 0 12.54 0 19 0 C 19 0.99 19 1.98 19 3 C 12.4 3 5.8 3 -1 3 C -0.67 2.01 -0.34 1.02 0 0 Z" stroke-linecap="round" />
</g>
		<g transform="matrix(1 0 0 1 -37.5 -35.5)"  >
<path style="stroke: none; stroke-width: 1; stroke-dasharray: none; stroke-linecap: butt; stroke-dashoffset: 0; stroke-linejoin: miter; stroke-miterlimit: 4; fill: rgb(33,34,34); fill-rule: nonzero; opacity: 1;" vector-effect="non-scaling-stroke"  transform=" translate(-9.5, -1.5)" d="M 0 0 C 6.27 0 12.54 0 19 0 C 19 0.99 19 1.98 19 3 C 12.73 3 6.46 3 0 3 C 0 2.01 0 1.02 0 0 Z" stroke-linecap="round" />
</g>
		<g transform="matrix(1 0 0 1 -15.5 37)"  >
<path style="stroke: none; stroke-width: 1; stroke-dasharray: none; stroke-linecap: butt; stroke-dashoffset: 0; stroke-linejoin: miter; stroke-miterlimit: 4; fill: rgb(34,34,36); fill-rule: nonzero; opacity: 1;" vector-effect="non-scaling-stroke"  transform=" translate(-3.5, -4)" d="M 0 0 C 2.31 0 4.62 0 7 0 C 7 2.64 7 5.28 7 8 C 4.69 8 2.38 8 0 8 C 0 5.36 0 2.72 0 0 Z" stroke-linecap="round" />
</g>
		<g transform="matrix(1 0 0 1 16 -35.44)"  >
<path style="stroke: none; stroke-width: 1; stroke-dasharray: none; stroke-linecap: butt; stroke-dashoffset: 0; stroke-linejoin: miter; stroke-miterlimit: 4; fill: rgb(29,29,32); fill-rule: nonzero; opacity: 1;" vector-effect="non-scaling-stroke"  transform=" translate(-4, -3.56)" d="M 0 0 C 2.64 0 5.28 0 8 0 C 8.04254356 1.99954746 8.04080783 4.00041636 8 6 C 7 7 7 7 4 7.125 C 1 7 1 7 0 6 C -0.04080783 4.00041636 -0.04254356 1.99954746 0 0 Z" stroke-linecap="round" />
</g>
		<g transform="matrix(1 0 0 1 -24.93 0.91)"  >
<path style="stroke: none; stroke-width: 1; stroke-dasharray: none; stroke-linecap: butt; stroke-dashoffset: 0; stroke-linejoin: miter; stroke-miterlimit: 4; fill: rgb(86,203,221); fill-rule: nonzero; opacity: 1;" vector-effect="non-scaling-stroke"  transform=" translate(0.49, -4.09)" d="M 0 0 C 2.4375 0.1875 2.4375 0.1875 3.4375 1.1875 C 3.625 3.625 3.625 3.625 3.4375 6.1875 C 2.7775 6.8475 2.1175 7.5075 1.4375 8.1875 C -1.1875 7.8125 -1.1875 7.8125 -3.5625 7.1875 C -4.1875 4.8125 -4.1875 4.8125 -4.5625 2.1875 C -2.5625 0.1875 -2.5625 0.1875 0 0 Z" stroke-linecap="round" />
</g>
		<g transform="matrix(1 0 0 1 0.07 0.91)"  >
<path style="stroke: none; stroke-width: 1; stroke-dasharray: none; stroke-linecap: butt; stroke-dashoffset: 0; stroke-linejoin: miter; stroke-miterlimit: 4; fill: rgb(111,91,111); fill-rule: nonzero; opacity: 1;" vector-effect="non-scaling-stroke"  transform=" translate(0.49, -4.09)" d="M 0 0 C 2.4375 0.1875 2.4375 0.1875 3.4375 1.1875 C 3.625 3.625 3.625 3.625 3.4375 6.1875 C 2.7775 6.8475 2.1175 7.5075 1.4375 8.1875 C -1.1875 7.8125 -1.1875 7.8125 -3.5625 7.1875 C -4.1875 4.8125 -4.1875 4.8125 -4.5625 2.1875 C -2.5625 0.1875 -2.5625 0.1875 0 0 Z" stroke-linecap="round" />
</g>
		<g transform="matrix(1 0 0 1 25.07 0.94)"  >
<path style="stroke: none; stroke-width: 1; stroke-dasharray: none; stroke-linecap: butt; stroke-dashoffset: 0; stroke-linejoin: miter; stroke-miterlimit: 4; fill: rgb(87,205,224); fill-rule: nonzero; opacity: 1;" vector-effect="non-scaling-stroke"  transform=" translate(0.43, -4.06)" d="M 0 0 C 2.5 0.125 2.5 0.125 3.5 1.125 C 3.6875 3.5625 3.6875 3.5625 3.5 6.125 C 2.84 6.785 2.18 7.445 1.5 8.125 C -1.43453261 7.75818342 -2.36437246 7.26062754 -4.5 5.125 C -3.7519084 0.18759542 -3.7519084 0.18759542 0 0 Z" stroke-linecap="round" />
</g>
		<g transform="matrix(1 0 0 1 -43.5 44.5)"  >
<path style="stroke: none; stroke-width: 1; stroke-dasharray: none; stroke-linecap: butt; stroke-dashoffset: 0; stroke-linejoin: miter; stroke-miterlimit: 4; fill: rgb(12,10,18); fill-rule: nonzero; opacity: 1;" vector-effect="non-scaling-stroke"  transform=" translate(-3.5, -3.5)" d="M 0 0 C 2.31 0 4.62 0 7 0 C 7 2.31 7 4.62 7 7 C 4.69 7 2.38 7 0 7 C 0 4.69 0 2.38 0 0 Z" stroke-linecap="round" />
</g>
		<g transform="matrix(1 0 0 1 -40.93 6)"  >
<path style="stroke: none; stroke-width: 1; stroke-dasharray: none; stroke-linecap: butt; stroke-dashoffset: 0; stroke-linejoin: miter; stroke-miterlimit: 4; fill: rgb(15,16,16); fill-rule: nonzero; opacity: 1;" vector-effect="non-scaling-stroke"  transform=" translate(-5.07, -7)" d="M 0 0 C 0.515625 0.680625 1.03125 1.36125 1.5625 2.0625 C 4.50071413 5.60342473 7.70787019 8.79109819 11 12 C 10.67 12.66 10.34 13.32 10 14 C 6.67002318 12.56759312 4.6007104 10.81763476 2.1875 8.125 C 1.56230469 7.44695313 0.93710938 6.76890625 0.29296875 6.0703125 C -1 4 -1 4 -0.69921875 1.7421875 C -0.46847656 1.16726562 -0.23773438 0.59234375 0 0 Z" stroke-linecap="round" />
</g>
		<g transform="matrix(1 0 0 1 33 29.5)"  >
<path style="stroke: none; stroke-width: 1; stroke-dasharray: none; stroke-linecap: butt; stroke-dashoffset: 0; stroke-linejoin: miter; stroke-miterlimit: 4; fill: rgb(36,37,37); fill-rule: nonzero; opacity: 1;" vector-effect="non-scaling-stroke"  transform=" translate(-14, -2.5)" d="M 0 0 C 3.875 0.875 3.875 0.875 5 2 C 6.70563778 2.15740605 8.41727244 2.25093392 10.12890625 2.31640625 C 11.68061523 2.37924805 11.68061523 2.37924805 13.26367188 2.44335938 C 14.35228516 2.48267578 15.44089844 2.52199219 16.5625 2.5625 C 17.65498047 2.60568359 18.74746094 2.64886719 19.87304688 2.69335938 C 22.58189564 2.79982068 25.29083992 2.90183516 28 3 C 28 3.33 28 3.66 28 4 C 24.39588419 4.16777857 20.7916996 4.33403188 17.1875 4.5 C 16.16333984 4.54769531 15.13917969 4.59539062 14.08398438 4.64453125 C 13.10107422 4.68964844 12.11816406 4.73476562 11.10546875 4.78125 C 10.19949951 4.82314453 9.29353027 4.86503906 8.36010742 4.90820312 C 3.13668064 5.11136941 3.13668064 5.11136941 1.3125 3.625 C 0 2 0 2 0 0 Z" stroke-linecap="round" />
</g>
		<g transform="matrix(1 0 0 1 -36 27)"  >
<path style="stroke: none; stroke-width: 1; stroke-dasharray: none; stroke-linecap: butt; stroke-dashoffset: 0; stroke-linejoin: miter; stroke-miterlimit: 4; fill: rgb(157,140,224); fill-rule: nonzero; opacity: 1;" vector-effect="non-scaling-stroke"  transform=" translate(-3, -3)" d="M 0 0 C 1.98 0 3.96 0 6 0 C 6 1.98 6 3.96 6 6 C 4.02 6 2.04 6 0 6 C 0 4.02 0 2.04 0 0 Z" stroke-linecap="round" />
</g>
		<g transform="matrix(1 0 0 1 -26.5 -28.65)"  >
<path style="stroke: none; stroke-width: 1; stroke-dasharray: none; stroke-linecap: butt; stroke-dashoffset: 0; stroke-linejoin: miter; stroke-miterlimit: 4; fill: rgb(7,8,8); fill-rule: nonzero; opacity: 1;" vector-effect="non-scaling-stroke"  transform=" translate(-7.5, -2.35)" d="M 0 0 C 1.93681161 -0.08107583 3.8745934 -0.13922475 5.8125 -0.1875 C 6.89144531 -0.22230469 7.97039063 -0.25710937 9.08203125 -0.29296875 C 12 0 12 0 13.88671875 1.38671875 C 15 3 15 3 15 5 C 13.68 4.67 12.36 4.34 11 4 C 11 3.34 11 2.68 11 2 C 7.37 2 3.74 2 0 2 C 0 1.34 0 0.68 0 0 Z" stroke-linecap="round" />
</g>
		<g transform="matrix(1 0 0 1 27 19)"  >
<path style="stroke: none; stroke-width: 1; stroke-dasharray: none; stroke-linecap: butt; stroke-dashoffset: 0; stroke-linejoin: miter; stroke-miterlimit: 4; fill: rgb(25,27,28); fill-rule: nonzero; opacity: 1;" vector-effect="non-scaling-stroke"  transform=" translate(4, -5)" d="M 0 0 C 0.66 0.33 1.32 0.66 2 1 C 0.55613418 4.71279784 -1.12236392 5.9486443 -4.625 7.75 C -5.44226563 8.17796875 -6.25953125 8.6059375 -7.1015625 9.046875 C -7.72804688 9.36140625 -8.35453125 9.6759375 -9 10 C -9.33 8.68 -9.66 7.36 -10 6 C -9.44570312 5.73445313 -8.89140625 5.46890625 -8.3203125 5.1953125 C -7.59585938 4.84210938 -6.87140625 4.48890625 -6.125 4.125 C -5.40570313 3.77695313 -4.68640625 3.42890625 -3.9453125 3.0703125 C -1.84864981 2.03442457 -1.84864981 2.03442457 0 0 Z" stroke-linecap="round" />
</g>
		<g transform="matrix(1 0 0 1 -4 -16.5)"  >
<path style="stroke: none; stroke-width: 1; stroke-dasharray: none; stroke-linecap: butt; stroke-dashoffset: 0; stroke-linejoin: miter; stroke-miterlimit: 4; fill: rgb(159,232,237); fill-rule: nonzero; opacity: 1;" vector-effect="non-scaling-stroke"  transform=" translate(3, -3.5)" d="M 0 0 C 0 2.31 0 4.62 0 7 C -1.32 7 -2.64 7 -4 7 C -4.66 5.02 -5.32 3.04 -6 1 C -4 0 -4 0 0 0 Z" stroke-linecap="round" />
</g>
		<g transform="matrix(1 0 0 1 -17 -13)"  >
<path style="stroke: none; stroke-width: 1; stroke-dasharray: none; stroke-linecap: butt; stroke-dashoffset: 0; stroke-linejoin: miter; stroke-miterlimit: 4; fill: rgb(10,18,19); fill-rule: nonzero; opacity: 1;" vector-effect="non-scaling-stroke"  transform=" translate(2, -5)" d="M 0 0 C 0.66 0.33 1.32 0.66 2 1 C 0.47291037 4.43595166 -1.59927045 7.11912454 -4 10 C -4.66 9.67 -5.32 9.34 -6 9 C -4.68775452 5.06326356 -3.08089673 2.77280706 0 0 Z" stroke-linecap="round" />
</g>
		<g transform="matrix(1 0 0 1 -3.5 17.5)"  >
<path style="stroke: none; stroke-width: 1; stroke-dasharray: none; stroke-linecap: butt; stroke-dashoffset: 0; stroke-linejoin: miter; stroke-miterlimit: 4; fill: rgb(162,236,241); fill-rule: nonzero; opacity: 1;" vector-effect="non-scaling-stroke"  transform=" translate(-1.5, -3.5)" d="M 0 0 C 1.98 0.495 1.98 0.495 4 1 C 4 2.98 4 4.96 4 7 C 2.35 7 0.7 7 -1 7 C -0.67 4.69 -0.34 2.38 0 0 Z" stroke-linecap="round" />
</g>
		<g transform="matrix(1 0 0 1 5 -16.5)"  >
<path style="stroke: none; stroke-width: 1; stroke-dasharray: none; stroke-linecap: butt; stroke-dashoffset: 0; stroke-linejoin: miter; stroke-miterlimit: 4; fill: rgb(157,230,237); fill-rule: nonzero; opacity: 1;" vector-effect="non-scaling-stroke"  transform=" translate(-3, -3.5)" d="M 0 0 C 2.97 0.495 2.97 0.495 6 1 C 5.01 2.98 4.02 4.96 3 7 C 2.01 7 1.02 7 0 7 C 0 4.69 0 2.38 0 0 Z" stroke-linecap="round" />
</g>
		<g transform="matrix(1 0 0 1 36.5 -25.5)"  >
<path style="stroke: none; stroke-width: 1; stroke-dasharray: none; stroke-linecap: butt; stroke-dashoffset: 0; stroke-linejoin: miter; stroke-miterlimit: 4; fill: rgb(141,107,221); fill-rule: nonzero; opacity: 1;" vector-effect="non-scaling-stroke"  transform=" translate(-2.5, -2.5)" d="M 0 0 C 1.65 0 3.3 0 5 0 C 5 1.65 5 3.3 5 5 C 3.35 5 1.7 5 0 5 C 0 3.35 0 1.7 0 0 Z" stroke-linecap="round" />
</g>
		<g transform="matrix(1 0 0 1 4.5 18)"  >
<path style="stroke: none; stroke-width: 1; stroke-dasharray: none; stroke-linecap: butt; stroke-dashoffset: 0; stroke-linejoin: miter; stroke-miterlimit: 4; fill: rgb(168,246,252); fill-rule: nonzero; opacity: 1;" vector-effect="non-scaling-stroke"  transform=" translate(-2.5, -3)" d="M 0 0 C 0.99 0 1.98 0 3 0 C 3.66 1.65 4.32 3.3 5 5 C 3.35 5.33 1.7 5.66 0 6 C 0 4.02 0 2.04 0 0 Z" stroke-linecap="round" />
</g>
		<g transform="matrix(1 0 0 1 -29.5 40)"  >
<path style="stroke: none; stroke-width: 1; stroke-dasharray: none; stroke-linecap: butt; stroke-dashoffset: 0; stroke-linejoin: miter; stroke-miterlimit: 4; fill: rgb(128,121,162); fill-rule: nonzero; opacity: 1;" vector-effect="non-scaling-stroke"  transform=" translate(-2.5, -2)" d="M 0 0 C 1.65 0 3.3 0 5 0 C 5 1.32 5 2.64 5 4 C 3.35 4 1.7 4 0 4 C 0 2.68 0 1.36 0 0 Z" stroke-linecap="round" />
</g>
		<g transform="matrix(1 0 0 1 22 29.5)"  >
<path style="stroke: none; stroke-width: 1; stroke-dasharray: none; stroke-linecap: butt; stroke-dashoffset: 0; stroke-linejoin: miter; stroke-miterlimit: 4; fill: rgb(25,26,26); fill-rule: nonzero; opacity: 1;" vector-effect="non-scaling-stroke"  transform=" translate(-3, -2.5)" d="M 0 0 C 1.875 0.25 1.875 0.25 4 1 C 5.25 3.0625 5.25 3.0625 6 5 C 3 5 3 5 1.3125 3.625 C 0 2 0 2 0 0 Z" stroke-linecap="round" />
</g>
		<g transform="matrix(1 0 0 1 23 10)"  >
<path style="stroke: none; stroke-width: 1; stroke-dasharray: none; stroke-linecap: butt; stroke-dashoffset: 0; stroke-linejoin: miter; stroke-miterlimit: 4; fill: rgb(84,194,210); fill-rule: nonzero; opacity: 1;" vector-effect="non-scaling-stroke"  transform=" translate(0, -3)" d="M 0 0 C 0.99 0 1.98 0 3 0 C 2.34 1.98 1.68 3.96 1 6 C -0.32 5.67 -1.64 5.34 -3 5 C -2.34 4.67 -1.68 4.34 -1 4 C -0.34786708 1.97536745 -0.34786708 1.97536745 0 0 Z" stroke-linecap="round" />
</g>
		<g transform="matrix(1 0 0 1 9.5 23.5)"  >
<path style="stroke: none; stroke-width: 1; stroke-dasharray: none; stroke-linecap: butt; stroke-dashoffset: 0; stroke-linejoin: miter; stroke-miterlimit: 4; fill: rgb(85,196,212); fill-rule: nonzero; opacity: 1;" vector-effect="non-scaling-stroke"  transform=" translate(1.5, -2.5)" d="M 0 0 C 0.66 0.33 1.32 0.66 2 1 C 1.67 1.99 1.34 2.98 1 4 C -1.0625 4.6875 -1.0625 4.6875 -3 5 C -3 4.34 -3 3.68 -3 3 C -3.66 2.67 -4.32 2.34 -5 2 C -2.625 0.9375 -2.625 0.9375 0 0 Z" stroke-linecap="round" />
</g>
</g>
</g>
<g transform="matrix(1 0 0 1 622.88 540)" style="" id="9600c551-e540-4699-98ce-690df758d2ed"  >
		<text xml:space="preserve" font-family="Raleway" font-size="105" font-style="normal" font-weight="900" style="stroke: none; stroke-width: 1; stroke-dasharray: none; stroke-linecap: butt; stroke-dashoffset: 0; stroke-linejoin: miter; stroke-miterlimit: 4; fill: rgb(0,0,0); fill-rule: nonzero; opacity: 1; white-space: pre;" ><tspan x="-231.73" y="32.98" >EYESEEU</tspan></text>
</g>
</svg>